<svg xmlns="http://www.w3.org/2000/svg" width="801.667" height="770.62" viewBox="0 0 801.667 770.62">
  <path id="Path_143" data-name="Path 143" d="M1008.238,645.928c-.889,2.115-1.816,4.193-2.774,6.259-36.7,79.115-122.081,128.249-266.07,102.244-81.755-15.468-116.573,41.268-150.288,99.38-.577,1-1.153,2.006-1.739,3.009-35.306,60.94-70.261,122.05-157.661,101.737-92.655-18.126-149.838-111.211-158.686-210.591-.108-1.208-.205-2.429-.293-3.637-4.971-64.433,10.392-131.149,49.585-181.517,23.674-30.416,57.31-46.572,92.03-46.065a137.468,137.468,0,0,0,31.214-2.864c2.276-.5,4.483-1.039,6.632-1.655,44.233-12.507,64.616-49.69,77.117-95.066.293-1.076.586-2.151.869-3.239,28.7-108.214,15.431-260.1,171.482-237.756C839.3,188.9,941.778,284.708,992.046,395.241c.5,1.112,1,2.224,1.484,3.335a390.815,390.815,0,0,1,29.221,98.256q.469,2.9.86,5.8C1030.721,553.967,1026.062,603.862,1008.238,645.928Z" transform="translate(-178.64 1023.603) rotate(-89)" fill="#106eb8" opacity="0.8"/>
</svg>
