<svg xmlns="http://www.w3.org/2000/svg" width="29.25" height="27.001" viewBox="0 0 29.25 27.001">
  <g id="Icon_ionic-ios-wallet" data-name="Icon ionic-ios-wallet" transform="translate(-3.375 -4.499)">
    <path id="Path_180" data-name="Path 180" d="M28.406,11.25H7.594a4.222,4.222,0,0,0-4.219,4.219V27.281A4.222,4.222,0,0,0,7.594,31.5H28.406a4.222,4.222,0,0,0,4.219-4.219V15.469A4.222,4.222,0,0,0,28.406,11.25Z"/>
    <path id="Path_181" data-name="Path 181" d="M24.11,4.57,7.594,7.8C6.328,8.079,4.5,9.352,4.5,10.9A4.43,4.43,0,0,1,7.945,9.563h20.18V8.121a4.037,4.037,0,0,0-.977-2.644h0A3.325,3.325,0,0,0,24.11,4.57Z"/>
  </g>
</svg>
