<svg xmlns="http://www.w3.org/2000/svg" width="50.677" height="54.008" viewBox="0 0 50.677 54.008">
  <path id="Icon_awesome-user-alt" data-name="Icon awesome-user-alt" d="M25.339,30.379c7.869,0,14.253-6.8,14.253-15.19S33.207,0,25.339,0,11.086,6.8,11.086,15.19,17.47,30.379,25.339,30.379Zm12.669,3.375H32.554a16.268,16.268,0,0,1-14.431,0H12.669C5.671,33.755,0,39.8,0,47.257v1.688a4.916,4.916,0,0,0,4.751,5.063H45.926a4.916,4.916,0,0,0,4.751-5.063V47.257C50.677,39.8,45.006,33.755,38.008,33.755Z" fill="#f80" opacity="0.56"/>
</svg>
