<svg xmlns="http://www.w3.org/2000/svg" width="50.877" height="45.004" viewBox="0 0 50.877 45.004">
  <path id="Icon_awesome-project-diagram" data-name="Icon awesome-project-diagram" d="M30.526,28.127H20.351a2.689,2.689,0,0,0-2.544,2.813V42.191A2.689,2.689,0,0,0,20.351,45H30.526a2.689,2.689,0,0,0,2.544-2.813V30.94A2.689,2.689,0,0,0,30.526,28.127ZM15.263,2.813A2.689,2.689,0,0,0,12.719,0H2.544A2.689,2.689,0,0,0,0,2.813V14.064a2.689,2.689,0,0,0,2.544,2.813h7.609l5.816,11.254a5.01,5.01,0,0,1,4.382-2.816h.022l-5.11-9.888V11.251H33.07V5.625H15.263ZM48.333,0H38.158a2.689,2.689,0,0,0-2.544,2.813V14.064a2.689,2.689,0,0,0,2.544,2.813H48.333a2.689,2.689,0,0,0,2.544-2.813V2.813A2.689,2.689,0,0,0,48.333,0Z" fill="#f80" opacity="0.56"/>
</svg>
